<?xml version="1.0" encoding="utf-8"?>
<!-- Generator: Adobe Illustrator 25.0.1, SVG Export Plug-In . SVG Version: 6.00 Build 0)  -->
<svg version="1.1" id="Capa_1" xmlns="http://www.w3.org/2000/svg" xmlns:xlink="http://www.w3.org/1999/xlink" x="0px" y="0px"
	 viewBox="0 0 409.6 409.6" style="enable-background:new 0 0 409.6 409.6;" xml:space="preserve">
<style type="text/css">
	.st0{fill:#FFFFFF;}
</style>
<g>
	<path class="st0" d="M27.3,136.5h355c15,0,27.3-12.2,27.3-27.3c0-15.1-12.2-27.3-27.3-27.3h-355C12.2,81.9,0,94.2,0,109.2
		S12.2,136.5,27.3,136.5z"/>
	<path class="st0" d="M382.3,177.5h-355c-15,0-27.3,12.3-27.3,27.3s12.2,27.3,27.3,27.3h355c15,0,27.3-12.2,27.3-27.3
		C409.6,189.7,397.4,177.5,382.3,177.5z"/>
	<path class="st0" d="M382.3,273.1h-355c-15,0-27.3,12.2-27.3,27.3s12.2,27.3,27.3,27.3h355c15,0,27.3-12.2,27.3-27.3
		C409.6,285.3,397.4,273.1,382.3,273.1z"/>
</g>
</svg>
